<svg width="109" height="28" viewBox="0 0 109 28" fill="none" xmlns="http://www.w3.org/2000/svg">
<path d="M42.9488 12.7337C44.5929 13.1412 45.7696 13.721 46.4789 14.4733C47.1881 15.2255 47.5427 16.3538 47.5427 17.8582C47.5427 19.3627 47.0108 20.5694 45.9469 21.4783C44.8831 22.3716 43.3196 22.8182 41.2563 22.8182C39.1931 22.8182 37.7021 22.3951 36.7833 21.5488C35.8645 20.6869 35.3004 19.441 35.0908 17.8112L37.7263 17.4116C37.823 18.3362 38.1454 19.0571 38.6934 19.5742C39.2576 20.0757 40.0393 20.3265 41.0387 20.3265C43.1825 20.3265 44.2545 19.5351 44.2545 17.9523C44.2545 17.2784 44.053 16.7691 43.65 16.4243C43.247 16.0796 42.4733 15.7661 41.3289 15.484L39.9507 15.155C38.3388 14.7632 37.1863 14.1833 36.4932 13.4154C35.8001 12.6476 35.4535 11.5036 35.4535 9.98345C35.4535 8.44767 35.9612 7.23315 36.9767 6.33989C37.9922 5.44663 39.4913 5 41.4739 5C43.4727 5 44.9073 5.43096 45.7777 6.29288C46.6642 7.13912 47.2123 8.37715 47.4218 10.007L44.8106 10.4066C44.601 8.46334 43.5694 7.49172 41.7157 7.49172C40.7002 7.49172 39.9507 7.71112 39.4671 8.14992C38.9835 8.57304 38.7418 9.1372 38.7418 9.84241C38.7418 10.5476 38.9271 11.0726 39.2979 11.4174C39.6686 11.7621 40.3778 12.0677 41.4256 12.3341L42.9488 12.7337Z" fill="#CE1567"/>
<path d="M50.8501 5.3291H60.8116V7.79732H54.1384V12.5457H60.2071V14.9904H54.1384V20.0209H61.2952V22.4891H50.8501V5.3291Z" fill="#142935"/>
<path d="M65.105 5.3291H71.2705C73.511 5.3291 75.0665 5.9011 75.9369 7.0451C76.6784 8.03239 77.0491 9.19206 77.0491 10.5241C77.0491 12.8905 76.0981 14.4576 74.1961 15.2255C74.5507 15.6016 74.8569 16.0717 75.1149 16.6359L77.7987 22.4891H74.2928L71.7782 16.918C71.5526 16.4478 71.3027 16.1266 71.0287 15.9542C70.7708 15.7818 70.3759 15.6956 69.844 15.6956H68.3932V22.4891H65.105V5.3291ZM68.3932 13.2274H70.8836C71.8508 13.2274 72.5681 12.9688 73.0355 12.4517C73.5191 11.9345 73.7609 11.292 73.7609 10.5241C73.7609 9.74055 73.5191 9.0902 73.0355 8.57305C72.5681 8.05589 71.8508 7.79732 70.8836 7.79732H68.3932V13.2274Z" fill="#142935"/>
<path d="M89.2388 22.4891H84.9834L79.7609 5.3291H83.0492L87.1111 19.3862L91.1731 5.3291H94.4856L89.2388 22.4891Z" fill="#142935"/>
<path d="M97.7232 5.3291H107.685V7.79732H101.011V12.5457H107.08V14.9904H101.011V20.0209H108.168V22.4891H97.7232V5.3291Z" fill="#142935"/>
<g clip-path="url(#clip0_3_1534)">
<path d="M22.8537 3.13081C22.3858 2.77118 22.1074 2.80212 21.5467 3.27776C21.129 3.62579 20.7965 3.81914 20.3556 3.96608C19.59 4.2213 18.6658 4.13236 17.962 3.73793C17.5714 3.51751 16.9798 2.89492 16.7516 2.45795C16.5505 2.07899 16.3688 1.32493 16.3765 0.915026C16.3881 0.617268 16.2334 0.346578 15.9782 0.199633C15.723 0.0526864 14.8916 -0.0285195 13.8243 -0.0130516C12.6835 0.00628335 12.3355 0.0449533 12.1422 0.184164C11.8521 0.396849 11.7709 0.586331 11.74 1.14318C11.6665 2.51596 10.8661 3.55618 9.55514 3.98542C9.13751 4.12463 8.2481 4.08596 7.76086 3.91581C7.26202 3.7418 6.77478 3.4479 6.46928 3.14241C6.15993 2.83305 5.91244 2.76345 5.55281 2.88332C5.26278 2.98 5.25892 2.98387 4.14136 4.10143C3.12047 5.12231 3.01606 5.24219 2.94646 5.44327C2.83045 5.78357 2.93872 6.08519 3.36022 6.5995C3.76626 7.09834 3.92481 7.43477 4.04855 8.04576C4.24577 9.03184 3.94027 10.0179 3.20941 10.7488C2.6603 11.2902 2.05705 11.5608 1.21791 11.6343C0.943356 11.6614 0.661066 11.6962 0.595327 11.7155C0.43678 11.7658 0.166092 12.0365 0.111954 12.1989C-0.00792304 12.5895 -0.0543271 14.5462 0.0346138 15.3776C0.100353 15.9537 0.421313 16.2438 1.02456 16.2592C1.77863 16.2863 2.47082 16.5454 3.07794 17.0365C3.58838 17.4541 3.96734 18.1657 4.08335 18.9236C4.21096 19.7705 3.85133 20.8262 3.22488 21.4526C2.93099 21.7465 2.79178 22.0481 2.83431 22.3149C2.87685 22.6127 3.30995 23.1309 4.34244 24.1247C5.09264 24.844 5.26278 24.9909 5.44453 25.0566C5.8003 25.1804 6.00138 25.1108 6.46155 24.7202C7.11507 24.1595 7.76473 23.9043 8.55359 23.8965C9.42753 23.8888 10.0114 24.1324 10.6534 24.7744C11.2876 25.4008 11.5776 26.0698 11.6201 26.994C11.6433 27.4812 11.8367 27.7674 12.2156 27.8911C12.5946 28.0149 14.4972 28.0613 15.3904 27.9646C15.7075 27.9337 15.7539 27.9105 15.9743 27.6901C16.2334 27.431 16.218 27.4928 16.303 26.5493C16.4113 25.3351 17.4283 24.2098 18.631 23.9739C19.6519 23.7728 20.6186 24.0358 21.3804 24.7202C21.8715 25.1649 22.0881 25.2423 22.4632 25.1146C22.7377 25.0257 22.7648 24.9986 23.863 23.9004C24.8839 22.8795 24.9883 22.7597 25.0579 22.5586C25.1623 22.2531 25.0579 21.9089 24.7524 21.5416C24.1994 20.8726 23.9171 20.1726 23.9094 19.4766C23.8939 17.7751 25.0618 16.5145 26.7865 16.3675C27.061 16.3404 27.3433 16.3056 27.409 16.2863C27.5676 16.236 27.8383 15.9654 27.8924 15.8029C28.0123 15.4124 28.0587 13.4557 27.9697 12.6243C27.9079 12.052 27.5985 11.7735 26.9914 11.7465C26.0904 11.7039 25.3943 11.41 24.7795 10.8029C24.3967 10.4278 24.2188 10.1417 24.0448 9.64282C23.689 8.591 23.9984 7.3381 24.8104 6.5183C25.2783 6.04265 25.3015 5.67916 24.8994 5.16871C24.6055 4.79748 23.1979 3.39763 22.8537 3.13081ZM20.375 9.12078C22.8924 12.3961 22.4825 17.1138 19.443 19.9058C18.5884 20.6908 17.6642 21.2361 16.5312 21.6189L15.9937 21.8006L15.9937 19.3335V16.8664L16.3997 16.6537C18.9055 15.3544 19.8259 12.2608 18.4415 9.77817C18.1476 9.24452 17.4399 8.48273 16.9218 8.14243C16.4423 7.82534 16.3726 7.80214 16.1368 7.87561C15.7423 7.99935 15.7269 8.09216 15.723 10.045L15.7191 11.8354L15.5451 11.963C15.4523 12.0326 15.2125 12.2182 15.0076 12.3768C14.8026 12.5353 14.5204 12.7403 14.3773 12.8292L14.1182 12.9955L13.8591 12.8292C13.3564 12.5121 12.6062 11.9011 12.5637 11.7735C12.5405 11.7039 12.5211 10.8725 12.5173 9.91738C12.5095 8.1927 12.5095 8.17723 12.3432 8.01095C12.0764 7.74413 11.8521 7.77507 11.2992 8.1579C9.44687 9.44561 8.68507 11.8238 9.45073 13.9274C9.87224 15.0914 10.7423 16.0852 11.8367 16.6537L12.2427 16.8664L12.2427 19.3335C12.2427 20.6869 12.2311 21.8045 12.2156 21.82C12.1692 21.8664 10.9473 21.441 10.4755 21.2167C7.70672 19.8865 5.91244 16.9476 5.98204 13.8617C6.07098 9.81297 9.01763 6.54923 13.0393 6.03879C15.839 5.68302 18.6387 6.85859 20.375 9.12078Z" fill="#CE1567"/>
</g>
<defs>
<clipPath id="clip0_3_1534">
<rect width="28" height="28" fill="white"/>
</clipPath>
</defs>
</svg>
