<svg width="14" height="20" viewBox="0 0 14 20" fill="none" xmlns="http://www.w3.org/2000/svg">
<path d="M6.25775 0.0429611C3.52728 0.359367 1.26557 2.32421 0.57416 4.98046C0.281191 6.10937 0.300723 7.4414 0.621035 8.55468C1.00775 9.90234 1.65228 10.9414 3.81244 13.6914C4.23432 14.2266 4.57807 14.6797 4.57807 14.6914C4.57807 14.707 4.48822 14.7305 4.37494 14.7422C3.35932 14.8789 1.96869 15.3633 1.31244 15.8125C0.984316 16.0352 0.609316 16.4414 0.484316 16.707C0.394473 16.8984 0.378848 16.9844 0.378848 17.2656C0.382754 17.6875 0.492129 17.9453 0.816348 18.2852C1.37104 18.8711 2.2226 19.2891 3.50385 19.6055C4.62103 19.8828 5.5351 19.9805 7.01947 19.9766C8.23822 19.9766 8.85932 19.9297 9.77338 19.7656C11.707 19.4141 13.1132 18.6836 13.5156 17.8242C13.6015 17.6367 13.6171 17.543 13.621 17.2656C13.621 16.8398 13.5117 16.5859 13.164 16.2227C12.871 15.918 12.6171 15.7383 12.1171 15.4883C11.5234 15.1875 10.3437 14.8359 9.62885 14.7422C9.51557 14.7305 9.42182 14.707 9.42182 14.6914C9.42182 14.6797 9.85541 14.1172 10.3788 13.4414C12.1367 11.1953 12.7499 10.2461 13.1953 9.10156C13.496 8.31249 13.621 7.60937 13.6171 6.66015C13.6171 5.83984 13.5585 5.42187 13.3632 4.7539C12.4492 1.67968 9.42963 -0.32032 6.25775 0.0429611ZM8.15228 0.89843C10.207 1.33202 11.8749 2.79296 12.539 4.74609C12.7695 5.41796 12.8359 5.83984 12.8359 6.64062C12.8398 7.73046 12.664 8.45702 12.1601 9.47265C11.6757 10.4531 11.3046 10.9844 9.42963 13.3945C8.75385 14.2617 7.93744 15.3242 7.61713 15.7578C7.29682 16.1875 7.01947 16.543 6.99994 16.543C6.98432 16.543 6.65228 16.1172 6.26557 15.6016C5.87885 15.082 5.14447 14.125 4.63275 13.4727C2.81244 11.1484 2.26947 10.375 1.82416 9.47656C1.539 8.89843 1.37885 8.44531 1.25385 7.85155C1.12494 7.2539 1.12494 6.09765 1.25385 5.5078C1.64447 3.67968 2.73822 2.24999 4.38275 1.41015C4.96869 1.10937 5.5976 0.917961 6.29682 0.820305C6.71088 0.761711 7.70697 0.80468 8.15228 0.89843ZM5.78119 16.2578C6.12103 16.7148 6.4726 17.1992 6.56635 17.3281C6.78119 17.6406 6.96869 17.7266 7.18353 17.6055C7.23041 17.5781 7.48822 17.2578 7.74994 16.8945C8.01557 16.5273 8.37103 16.0469 8.539 15.8242L8.84369 15.4219L9.06635 15.4492C9.52728 15.5039 10.4648 15.7109 10.9374 15.8633C11.9413 16.1914 12.7031 16.6914 12.8242 17.1016C13.1328 18.1641 10.2382 19.2187 6.99994 19.2187C4.51947 19.2187 2.16791 18.6094 1.38666 17.7617C1.04291 17.3906 1.06635 17.0859 1.46869 16.6992C1.99604 16.1914 3.0976 15.7617 4.52728 15.5117C5.20697 15.3906 5.07807 15.3125 5.78119 16.2578Z" fill="white"/>
<path d="M6.84757 1.61719C6.49601 1.8125 6.65226 2.34375 7.06242 2.34375C7.21086 2.34375 7.42961 2.11328 7.42961 1.95312C7.42961 1.86328 7.39445 1.78906 7.2968 1.69531C7.15226 1.55078 7.01164 1.52734 6.84757 1.61719Z" fill="white"/>
<path d="M8.32031 1.94922C8.21484 2.04297 8.19141 2.08984 8.19141 2.21875C8.19141 2.41797 8.30469 2.54297 8.55469 2.63672C9.52735 2.99609 10.4375 3.84766 10.8867 4.81641C11.1328 5.34375 11.2969 6.0625 11.2969 6.58984C11.2969 6.78125 11.3125 6.82031 11.4297 6.9375C11.6133 7.12109 11.7656 7.11719 11.9492 6.93359L12.0899 6.79297L12.0664 6.375C11.9688 4.67578 11.0625 3.16797 9.60547 2.28516C9.25 2.07031 8.70703 1.83594 8.55469 1.83594C8.48828 1.83594 8.39453 1.88281 8.32031 1.94922Z" fill="white"/>
<path d="M6.43358 3.96875C6.0078 4.05078 5.48436 4.32812 5.14061 4.65625C4.23827 5.51562 4.01561 6.73828 4.56249 7.85156C4.71483 8.16015 4.80468 8.28125 5.08202 8.55859C5.35936 8.83594 5.48046 8.92578 5.78905 9.07812C6.59373 9.47265 7.39451 9.47265 8.21092 9.07422C8.51951 8.92578 8.6367 8.83984 8.91795 8.55859C9.1992 8.27734 9.28514 8.16015 9.43357 7.85156C9.83201 7.03515 9.83201 6.24609 9.43357 5.42969C9.28514 5.12109 9.1992 5.0039 8.91795 4.72265C8.64061 4.44531 8.51951 4.35547 8.21092 4.20312C7.6328 3.92187 7.06248 3.84375 6.43358 3.96875ZM7.39842 4.73047C7.7578 4.80469 8.08983 4.98828 8.37108 5.26953C9.14842 6.04687 9.14842 7.23437 8.37108 8.01172C8.09373 8.28515 7.83201 8.4375 7.4492 8.53515C6.2617 8.83984 5.04686 7.88281 5.04686 6.64062C5.04686 5.76172 5.68749 4.94922 6.54295 4.74219C6.80077 4.67969 7.1367 4.67578 7.39842 4.73047Z" fill="white"/>
</svg>
