<svg width="26" height="26" viewBox="0 0 26 26" fill="none" xmlns="http://www.w3.org/2000/svg">
<path d="M20.5488 16.106C20.0165 15.5518 19.3745 15.2554 18.694 15.2554C18.0191 15.2554 17.3716 15.5463 16.8173 16.1005L15.0833 17.8291C14.9406 17.7522 14.7979 17.6809 14.6608 17.6096C14.4632 17.5108 14.2766 17.4175 14.1175 17.3187C12.4932 16.2871 11.0171 14.9427 9.6013 13.2031C8.91536 12.3361 8.45441 11.6063 8.11968 10.8655C8.56965 10.4539 8.9867 10.0259 9.39277 9.61431C9.54642 9.46066 9.70007 9.30152 9.85372 9.14787C11.0061 7.9955 11.0061 6.50291 9.85372 5.35054L8.35564 3.85246C8.18553 3.68234 8.00993 3.50674 7.8453 3.33115C7.51606 2.99092 7.17034 2.63972 6.81366 2.31047C6.28137 1.78368 5.64483 1.50381 4.97535 1.50381C4.30588 1.50381 3.65836 1.78368 3.10961 2.31047C3.10412 2.31596 3.10412 2.31596 3.09864 2.32145L1.23289 4.20365C0.530497 4.90605 0.129911 5.7621 0.0421114 6.75533C-0.089588 8.35768 0.382335 9.85027 0.744508 10.827C1.63348 13.2251 2.96145 15.4475 4.94243 17.8291C7.34594 20.699 10.2378 22.9653 13.5413 24.5622C14.8034 25.1603 16.4881 25.8682 18.3703 25.9889C18.4855 25.9944 18.6062 25.9999 18.716 25.9999C19.9836 25.9999 21.0482 25.5445 21.8823 24.639C21.8878 24.6281 21.8987 24.6226 21.9042 24.6116C22.1896 24.2659 22.5188 23.9531 22.8645 23.6184C23.1005 23.3934 23.3419 23.1574 23.5779 22.9105C24.1212 22.3453 24.4065 21.6868 24.4065 21.0118C24.4065 20.3314 24.1157 19.6783 23.5614 19.1296L20.5488 16.106ZM22.5133 21.8843C22.5078 21.8843 22.5078 21.8898 22.5133 21.8843C22.2993 22.1148 22.0798 22.3233 21.8439 22.5538C21.4872 22.894 21.125 23.2507 20.7848 23.6513C20.2305 24.2439 19.5775 24.5238 18.7215 24.5238C18.6392 24.5238 18.5514 24.5238 18.4691 24.5183C16.8393 24.414 15.3247 23.7775 14.1888 23.2342C11.0829 21.7307 8.35564 19.596 6.08931 16.8907C4.21808 14.6354 2.96694 12.5501 2.13833 10.3112C1.62799 8.94484 1.44142 7.88027 1.52373 6.87606C1.57861 6.23402 1.82554 5.70174 2.281 5.24628L4.15223 3.37504C4.42112 3.12262 4.70647 2.98543 4.98633 2.98543C5.33204 2.98543 5.6119 3.19396 5.7875 3.36956C5.79299 3.37504 5.79847 3.38053 5.80396 3.38602C6.1387 3.69881 6.45697 4.02257 6.79171 4.36828C6.96182 4.54388 7.13742 4.71948 7.31302 4.90056L8.8111 6.39865C9.39277 6.98032 9.39277 7.51809 8.8111 8.09976C8.65196 8.2589 8.49831 8.41804 8.33918 8.57169C7.87823 9.04361 7.43923 9.48261 6.96182 9.91063C6.95085 9.92161 6.93987 9.92709 6.93438 9.93807C6.46246 10.41 6.55026 10.8709 6.64903 11.1837C6.65452 11.2002 6.66001 11.2167 6.6655 11.2331C7.05511 12.177 7.60385 13.0659 8.43795 14.125L8.44344 14.1305C9.95798 15.9962 11.5548 17.4504 13.3163 18.5644C13.5413 18.7071 13.7718 18.8223 13.9913 18.932C14.1888 19.0308 14.3754 19.1241 14.5345 19.2229C14.5565 19.2339 14.5784 19.2503 14.6004 19.2613C14.787 19.3546 14.9626 19.3985 15.1436 19.3985C15.5991 19.3985 15.8845 19.1131 15.9777 19.0198L17.8545 17.1431C18.041 16.9566 18.3374 16.7316 18.6831 16.7316C19.0233 16.7316 19.3032 16.9456 19.4733 17.1322C19.4788 17.1376 19.4788 17.1376 19.4842 17.1431L22.5078 20.1667C23.0731 20.7265 23.0731 21.3026 22.5133 21.8843Z" fill="white"/>
<path d="M14.0512 6.18495C15.4889 6.4264 16.7949 7.10685 17.8375 8.14947C18.8802 9.19209 19.5551 10.4981 19.8021 11.9358C19.8624 12.298 20.1752 12.5504 20.5319 12.5504C20.5758 12.5504 20.6142 12.5449 20.6581 12.5395C21.0642 12.4736 21.3331 12.0895 21.2672 11.6834C20.9709 9.94387 20.1478 8.35799 18.8911 7.10136C17.6345 5.84473 16.0486 5.0216 14.3091 4.72528C13.903 4.65943 13.5244 4.92832 13.4531 5.3289C13.3817 5.72949 13.6451 6.1191 14.0512 6.18495Z" fill="white"/>
<path d="M25.9707 11.4691C25.4823 8.60468 24.1324 5.99813 22.0581 3.92387C19.9838 1.8496 17.3773 0.49968 14.5128 0.011294C14.1122 -0.0600432 13.7336 0.214331 13.6623 0.614917C13.5964 1.02099 13.8653 1.39963 14.2714 1.47096C16.8285 1.90447 19.1607 3.11721 21.0155 4.96649C22.8702 6.82125 24.0775 9.15343 24.511 11.7106C24.5714 12.0728 24.8841 12.3252 25.2408 12.3252C25.2847 12.3252 25.3231 12.3197 25.367 12.3142C25.7676 12.2539 26.042 11.8697 25.9707 11.4691Z" fill="white"/>
</svg>
