<svg width="26" height="26" viewBox="0 0 26 26" fill="none" xmlns="http://www.w3.org/2000/svg">
<path d="M20.5483 16.106C20.016 15.5518 19.374 15.2554 18.6936 15.2554C18.0186 15.2554 17.3711 15.5463 16.8168 16.1005L15.0828 17.8291C14.9401 17.7522 14.7974 17.6809 14.6603 17.6096C14.4627 17.5108 14.2761 17.4175 14.117 17.3187C12.4927 16.2871 11.0166 14.9427 9.60081 13.2031C8.91487 12.3361 8.45393 11.6063 8.11919 10.8655C8.56916 10.4539 8.98621 10.0259 9.39228 9.61431C9.54593 9.46066 9.69958 9.30152 9.85323 9.14787C11.0056 7.9955 11.0056 6.50291 9.85323 5.35054L8.35515 3.85246C8.18504 3.68234 8.00944 3.50674 7.84482 3.33115C7.51557 2.99092 7.16986 2.63972 6.81317 2.31047C6.28088 1.78368 5.64434 1.50381 4.97486 1.50381C4.30539 1.50381 3.65787 1.78368 3.10912 2.31047C3.10364 2.31596 3.10364 2.31596 3.09815 2.32145L1.23241 4.20365C0.530009 4.90605 0.129423 5.7621 0.0416231 6.75533C-0.0900763 8.35768 0.381847 9.85027 0.74402 10.827C1.63299 13.2251 2.96096 15.4475 4.94194 17.8291C7.34546 20.699 10.2374 22.9653 13.5408 24.5622C14.8029 25.1603 16.4876 25.8682 18.3698 25.9889C18.485 25.9944 18.6058 25.9999 18.7155 25.9999C19.9831 25.9999 21.0477 25.5445 21.8818 24.639C21.8873 24.6281 21.8982 24.6226 21.9037 24.6116C22.1891 24.2659 22.5183 23.9531 22.864 23.6184C23.1 23.3934 23.3415 23.1574 23.5774 22.9105C24.1207 22.3453 24.406 21.6868 24.406 21.0118C24.406 20.3314 24.1152 19.6783 23.5609 19.1296L20.5483 16.106ZM22.5128 21.8843C22.5074 21.8843 22.5074 21.8898 22.5128 21.8843C22.2988 22.1148 22.0793 22.3233 21.8434 22.5538C21.4867 22.894 21.1245 23.2507 20.7843 23.6513C20.2301 24.2439 19.577 24.5238 18.721 24.5238C18.6387 24.5238 18.5509 24.5238 18.4686 24.5183C16.8388 24.414 15.3242 23.7775 14.1883 23.2342C11.0824 21.7307 8.35515 19.596 6.08882 16.8907C4.21759 14.6354 2.96645 12.5501 2.13784 10.3112C1.6275 8.94484 1.44093 7.88027 1.52324 6.87606C1.57812 6.23402 1.82505 5.70174 2.28051 5.24628L4.15174 3.37504C4.42063 3.12262 4.70598 2.98543 4.98584 2.98543C5.33155 2.98543 5.61141 3.19396 5.78701 3.36956C5.7925 3.37504 5.79799 3.38053 5.80347 3.38602C6.13821 3.69881 6.45648 4.02257 6.79122 4.36828C6.96133 4.54388 7.13693 4.71948 7.31253 4.90056L8.81061 6.39865C9.39228 6.98032 9.39228 7.51809 8.81061 8.09976C8.65147 8.2589 8.49782 8.41804 8.33869 8.57169C7.87774 9.04361 7.43874 9.48261 6.96133 9.91063C6.95036 9.92161 6.93938 9.92709 6.93389 9.93807C6.46197 10.41 6.54977 10.8709 6.64855 11.1837C6.65403 11.2002 6.65952 11.2167 6.66501 11.2331C7.05462 12.177 7.60337 13.0659 8.43746 14.125L8.44295 14.1305C9.95749 15.9962 11.5544 17.4504 13.3158 18.5644C13.5408 18.7071 13.7713 18.8223 13.9908 18.932C14.1883 19.0308 14.3749 19.1241 14.534 19.2229C14.556 19.2339 14.5779 19.2503 14.5999 19.2613C14.7865 19.3546 14.9621 19.3985 15.1432 19.3985C15.5986 19.3985 15.884 19.1131 15.9773 19.0198L17.854 17.1431C18.0405 16.9566 18.3369 16.7316 18.6826 16.7316C19.0228 16.7316 19.3027 16.9456 19.4728 17.1322C19.4783 17.1376 19.4783 17.1376 19.4838 17.1431L22.5074 20.1667C23.0726 20.7265 23.0726 21.3026 22.5128 21.8843Z" fill="#142935"/>
<path d="M14.0512 6.18495C15.4889 6.4264 16.7949 7.10685 17.8375 8.14947C18.8802 9.19209 19.5551 10.4981 19.8021 11.9358C19.8624 12.298 20.1752 12.5504 20.5319 12.5504C20.5758 12.5504 20.6142 12.5449 20.6581 12.5395C21.0642 12.4736 21.3331 12.0895 21.2672 11.6834C20.9709 9.94387 20.1478 8.35799 18.8911 7.10136C17.6345 5.84473 16.0486 5.0216 14.3091 4.72528C13.903 4.65943 13.5244 4.92832 13.4531 5.3289C13.3817 5.72949 13.6451 6.1191 14.0512 6.18495Z" fill="#142935"/>
<path d="M25.9702 11.4691C25.4818 8.60468 24.1319 5.99813 22.0576 3.92387C19.9833 1.8496 17.3768 0.49968 14.5123 0.011294C14.1117 -0.0600432 13.7331 0.214331 13.6618 0.614917C13.5959 1.02099 13.8648 1.39963 14.2709 1.47096C16.828 1.90447 19.1602 3.11721 21.015 4.96649C22.8698 6.82125 24.077 9.15343 24.5105 11.7106C24.5709 12.0728 24.8837 12.3252 25.2403 12.3252C25.2842 12.3252 25.3227 12.3197 25.3666 12.3142C25.7671 12.2539 26.0415 11.8697 25.9702 11.4691Z" fill="#142935"/>
</svg>
