<svg width="88" height="28" viewBox="0 0 88 28" fill="none" xmlns="http://www.w3.org/2000/svg">
<g opacity="0.1">
<path d="M2.75 0.645266C2.14844 0.95464 2.14844 1.38433 2.75 2.89683C4.43438 7.15932 6.96094 10.5968 9.84844 12.5906C11.7734 13.8968 13.2 14.5156 15.8125 15.1515C17.8063 15.6328 23.2203 15.5812 26.1766 15.0484C29.7516 14.4296 34.1859 13.2781 40.3047 11.4046C46.8188 9.39369 51.7 8.13901 55.6703 7.45151C58.5922 6.93588 63.5078 6.81557 65.8109 7.1937C70.675 8.0187 73.8203 9.63432 77.3266 13.1406C79.2688 15.0999 79.6297 15.289 80.4719 14.8421C80.9188 14.6015 81.2969 13.6906 81.1766 13.089C81.125 12.8312 80.6266 12.1093 80.0594 11.4906C77.1891 8.31088 74.0266 6.21401 70.2281 4.97651C67.2375 3.99683 65.8109 3.79058 61.875 3.79058C55.4813 3.77339 51.2359 4.66714 39.5312 8.51713C30.6281 11.4562 27.8266 12.1781 23.1859 12.7281C18.5625 13.2781 14.9359 12.5562 11.7391 10.4421C9.19531 8.77495 6.34219 5.37182 4.64062 1.9687C3.85 0.404641 3.59219 0.215579 2.75 0.645266Z" fill="#15C8A0"/>
<path d="M80.317 2.44996C79.6983 2.5359 79.0108 3.48121 79.1139 4.11715C79.1655 4.40934 79.9905 5.85309 80.953 7.31402C83.8405 11.6968 84.8545 14.2062 84.6827 16.5781C84.5795 18.2797 83.9092 19.6203 82.517 20.9265C79.853 23.4359 75.9514 24.6047 68.9217 25C67.0999 25.1031 65.467 25.2578 65.3124 25.3437C64.8827 25.5672 64.7452 26.3062 65.003 26.8562C65.3639 27.5781 66.103 27.664 70.6405 27.4234C76.1405 27.1484 78.8905 26.6156 81.7264 25.275C84.167 24.1234 86.0061 22.4906 87.0373 20.5312C87.8452 18.9843 88.0686 17.85 87.9655 15.6156C87.8967 14.1031 87.7764 13.4156 87.3295 12.1093C86.4186 9.39371 84.6483 6.33434 82.4311 3.67027C81.5202 2.55309 81.1248 2.32965 80.317 2.44996Z" fill="#15C8A0"/>
<path d="M0.292286 6.79841C-0.154589 7.05623 -0.0686518 7.74373 0.584473 9.2906C3.47197 16.1312 8.2501 20.9094 14.2485 22.9375C16.7063 23.7625 18.4767 24.0203 21.8282 24.0203C26.9157 24.0375 30.1813 23.3844 38.397 20.7031C45.0485 18.5375 48.022 17.6265 50.3767 17.025C61.0157 14.2922 67.9423 15.3578 74.6798 20.7719C76.0376 21.8547 76.6907 22.0094 77.2923 21.3391C78.2548 20.3078 77.636 19.2078 74.8517 16.9219C71.0532 13.8453 66.7392 12.4531 60.9298 12.4531C55.6876 12.4531 50.7548 13.5015 40.6485 16.7672C31.1954 19.8265 27.2595 20.8062 22.8595 21.2359C16.8267 21.8031 12.461 20.3422 8.31885 16.3719C6.10166 14.2406 4.77822 12.4015 1.80479 7.33123C1.3751 6.57498 0.928223 6.42029 0.292286 6.79841Z" fill="#15C8A0"/>
</g>
</svg>
