<svg width="109" height="28" viewBox="0 0 109 28" fill="none" xmlns="http://www.w3.org/2000/svg">
<path d="M42.9488 12.7337C44.5929 13.1412 45.7696 13.721 46.4789 14.4733C47.1881 15.2255 47.5427 16.3538 47.5427 17.8582C47.5427 19.3627 47.0108 20.5694 45.9469 21.4783C44.8831 22.3716 43.3196 22.8182 41.2563 22.8182C39.1931 22.8182 37.7021 22.3951 36.7833 21.5488C35.8645 20.6869 35.3004 19.441 35.0908 17.8112L37.7263 17.4116C37.823 18.3362 38.1454 19.0571 38.6934 19.5742C39.2576 20.0757 40.0393 20.3265 41.0387 20.3265C43.1825 20.3265 44.2545 19.5351 44.2545 17.9523C44.2545 17.2784 44.053 16.7691 43.65 16.4243C43.247 16.0796 42.4733 15.7661 41.3289 15.484L39.9507 15.155C38.3388 14.7632 37.1863 14.1833 36.4932 13.4154C35.8001 12.6476 35.4535 11.5036 35.4535 9.98345C35.4535 8.44767 35.9612 7.23315 36.9767 6.33989C37.9922 5.44663 39.4913 5 41.4739 5C43.4727 5 44.9073 5.43096 45.7777 6.29288C46.6642 7.13912 47.2123 8.37715 47.4218 10.007L44.8106 10.4066C44.601 8.46334 43.5694 7.49172 41.7157 7.49172C40.7002 7.49172 39.9507 7.71112 39.4671 8.14992C38.9835 8.57304 38.7418 9.1372 38.7418 9.84241C38.7418 10.5476 38.9271 11.0726 39.2979 11.4174C39.6686 11.7621 40.3778 12.0677 41.4256 12.3341L42.9488 12.7337Z" fill="#FF6635"/>
<path d="M50.8501 5.3291H60.8116V7.79732H54.1384V12.5457H60.2072V14.9904H54.1384V20.0209H61.2952V22.4891H50.8501V5.3291Z" fill="#142935"/>
<path d="M65.105 5.3291H71.2705C73.511 5.3291 75.0665 5.9011 75.9369 7.0451C76.6784 8.03239 77.0491 9.19206 77.0491 10.5241C77.0491 12.8905 76.0981 14.4576 74.1961 15.2255C74.5507 15.6016 74.857 16.0717 75.1149 16.6359L77.7987 22.4891H74.2928L71.7782 16.918C71.5526 16.4478 71.3027 16.1266 71.0287 15.9542C70.7708 15.7818 70.3759 15.6956 69.844 15.6956H68.3933V22.4891H65.105V5.3291ZM68.3933 13.2274H70.8836C71.8508 13.2274 72.5681 12.9688 73.0355 12.4517C73.5191 11.9345 73.7609 11.292 73.7609 10.5241C73.7609 9.74055 73.5191 9.0902 73.0355 8.57305C72.5681 8.05589 71.8508 7.79732 70.8836 7.79732H68.3933V13.2274Z" fill="#142935"/>
<path d="M89.2389 22.4891H84.9834L79.7609 5.3291H83.0492L87.1112 19.3862L91.1731 5.3291H94.4856L89.2389 22.4891Z" fill="#142935"/>
<path d="M97.7232 5.3291H107.685V7.79732H101.011V12.5457H107.08V14.9904H101.011V20.0209H108.168V22.4891H97.7232V5.3291Z" fill="#142935"/>
<path d="M11.6211 0.103907C11.3039 0.246094 11.0195 0.585157 10.9484 0.907812C10.9156 1.05547 10.8227 1.72812 10.7461 2.40625C10.6695 3.08438 10.582 3.68594 10.5602 3.75156C10.4945 3.89922 9.275 4.41328 9.17109 4.33672C9.13828 4.30391 8.62422 3.90469 8.03906 3.44531C7.45391 2.98594 6.87422 2.56484 6.75391 2.51016C6.46953 2.37891 6.10313 2.37891 5.80781 2.51562C5.50703 2.65234 4.725 3.41797 4.67031 3.62578C4.61562 3.85547 4.79063 4.06875 5.05312 4.09063C5.23906 4.10703 5.28828 4.07969 5.70937 3.66953C6.02109 3.36328 6.20156 3.22656 6.29453 3.22656C6.38203 3.22656 6.79766 3.51641 7.54688 4.10703C8.68984 5.00391 8.98516 5.18984 9.25859 5.19531C9.42812 5.19531 10.6859 4.70859 10.9703 4.53359C11.2984 4.33125 11.3641 4.10156 11.5609 2.50469C11.7031 1.32891 11.7578 1.02266 11.8398 0.929688C11.9383 0.825781 11.993 0.820312 13.9727 0.820312C15.8758 0.820312 16.018 0.825781 16.1383 0.918751C16.2531 1.01719 16.275 1.1375 16.4391 2.49375C16.6359 4.10156 16.7016 4.33125 17.0297 4.53359C17.3141 4.70859 18.5719 5.19531 18.7414 5.19531C19.0148 5.18984 19.3156 5.00391 20.4531 4.10703C21.2188 3.50547 21.618 3.22656 21.7109 3.22656C21.9078 3.22656 24.7734 6.09219 24.7734 6.28906C24.7734 6.38203 24.4945 6.77578 23.893 7.54688C23.4062 8.16484 22.9578 8.77734 22.9031 8.90859C22.7555 9.22578 22.7883 9.39531 23.1328 10.243C23.4281 10.9539 23.5977 11.1945 23.893 11.3203C23.975 11.3531 24.7023 11.4625 25.5117 11.5609C26.8625 11.725 26.9883 11.7469 27.0812 11.8617C27.1742 11.982 27.1797 12.1242 27.1797 14C27.1797 15.8758 27.1742 16.018 27.0812 16.1383C26.9883 16.2531 26.8625 16.275 25.5117 16.4391C24.7023 16.5375 23.975 16.6469 23.893 16.6797C23.6141 16.8 23.4281 17.0516 23.1602 17.675C22.8047 18.5227 22.7609 18.7359 22.8758 19.0367C22.9305 19.168 23.3734 19.7914 23.8711 20.4258C24.4945 21.2188 24.7734 21.618 24.7734 21.7109C24.7734 21.9133 21.9078 24.7734 21.7109 24.7734C21.618 24.7734 21.2133 24.4891 20.4531 23.893C19.8352 23.4062 19.2227 22.9633 19.0914 22.9031C18.7797 22.7609 18.5992 22.7883 17.9102 23.0727C16.6195 23.6086 16.6852 23.4938 16.4445 25.4844C16.275 26.857 16.2531 26.9828 16.1383 27.0813C16.018 27.1742 15.8758 27.1797 14 27.1797C12.1242 27.1797 11.982 27.1742 11.8617 27.0813C11.7469 26.9828 11.725 26.8625 11.5609 25.5063C11.3641 23.8984 11.2984 23.6688 10.9703 23.4664C10.6859 23.2914 9.42812 22.8047 9.25859 22.8047C8.98516 22.8102 8.68984 22.9961 7.54688 23.893C6.78125 24.4945 6.38203 24.7734 6.28906 24.7734C6.09219 24.7734 3.22656 21.9078 3.22656 21.7109C3.22656 21.618 3.5 21.2242 4.10703 20.4531C5.00391 19.3156 5.18984 19.0203 5.19531 18.7414C5.19531 18.5719 4.70859 17.3141 4.53359 17.0297C4.33125 16.7016 4.10156 16.6359 2.49375 16.4391C1.14297 16.275 1.01172 16.2477 0.91875 16.1328C0.825781 16.018 0.820312 15.8703 0.820312 14C0.820312 12.1297 0.825781 11.982 0.91875 11.8672C1.01172 11.7523 1.14297 11.725 2.49375 11.5609C4.10156 11.3641 4.33125 11.2984 4.53359 10.9703C4.70859 10.6859 5.19531 9.42813 5.19531 9.25859C5.18984 8.97969 5.00391 8.68438 4.10703 7.54688C3.51641 6.79219 3.22656 6.38203 3.22656 6.29453C3.22656 6.20156 3.35781 6.02109 3.66953 5.70938C4.07969 5.28828 4.10703 5.23906 4.09062 5.05313C4.06875 4.79062 3.85547 4.61563 3.62578 4.67031C3.41797 4.725 2.65234 5.50703 2.51562 5.80781C2.37891 6.10312 2.37891 6.46953 2.51016 6.75391C2.56484 6.87422 2.98594 7.45391 3.44531 8.03906C3.90469 8.62422 4.30391 9.13828 4.33672 9.17656C4.375 9.22578 4.34219 9.36797 4.21094 9.66875C4.1125 9.89844 3.98672 10.1938 3.9375 10.3195C3.88281 10.4398 3.79531 10.5547 3.74062 10.5711C3.68047 10.5875 3.08437 10.6641 2.40625 10.7461C0.836719 10.9266 0.694531 10.9594 0.421094 11.2055C0 11.5828 0 11.5664 0 14C0 16.4336 0 16.4172 0.421094 16.7945C0.694531 17.0406 0.836719 17.0734 2.40625 17.2539C3.08437 17.3305 3.68594 17.418 3.75156 17.4398C3.89922 17.5055 4.41328 18.725 4.33672 18.8289C4.30391 18.8617 3.90469 19.3758 3.44531 19.9609C2.98594 20.5461 2.56484 21.1258 2.51016 21.2461C2.37891 21.5305 2.38437 21.8969 2.52109 22.2031C2.67969 22.5531 5.44688 25.3203 5.79688 25.4789C6.10313 25.6156 6.46953 25.6211 6.75391 25.4898C6.87422 25.4352 7.45391 25.0141 8.03906 24.5547C8.62422 24.0953 9.13828 23.6961 9.17109 23.6633C9.275 23.5867 10.4945 24.1008 10.5602 24.2484C10.582 24.3141 10.6695 24.9156 10.7461 25.5938C10.9266 27.1578 10.9594 27.3055 11.2055 27.5789C11.5828 28 11.5664 28 14 28C16.4336 28 16.4172 28 16.7945 27.5789C17.0406 27.3055 17.0734 27.1633 17.2539 25.6211C17.3305 24.9594 17.407 24.3633 17.4234 24.2922C17.4398 24.2047 17.5273 24.1336 17.6805 24.068C17.8062 24.0133 18.1016 23.8875 18.3312 23.7891C18.632 23.6578 18.7742 23.625 18.8234 23.6633C18.8617 23.6961 19.3758 24.0953 19.9609 24.5547C20.5461 25.0141 21.1258 25.4352 21.2461 25.4898C21.5578 25.632 21.9078 25.6211 22.2359 25.457C22.6133 25.2711 25.3203 22.5531 25.4789 22.2031C25.6156 21.8969 25.6211 21.5305 25.4898 21.2461C25.4352 21.1258 25.0141 20.5461 24.5547 19.9609C24.0953 19.3758 23.6961 18.8617 23.6633 18.8289C23.5867 18.725 24.1008 17.5055 24.2484 17.4398C24.3141 17.418 24.9156 17.3305 25.5938 17.2539C27.1578 17.0734 27.3055 17.0406 27.5789 16.7945C28 16.4172 28 16.4336 28 14C28 11.5664 28 11.5828 27.5789 11.2055C27.3055 10.9594 27.1578 10.9266 25.5938 10.7461C24.9156 10.6695 24.3141 10.582 24.2484 10.5602C24.1008 10.4945 23.5867 9.275 23.6633 9.17109C23.6961 9.13828 24.0953 8.62422 24.5547 8.03906C25.0141 7.45391 25.4352 6.87422 25.4898 6.75391C25.6211 6.46953 25.6156 6.10312 25.4789 5.79688C25.3203 5.44687 22.6133 2.72891 22.2359 2.54297C21.9078 2.37891 21.5578 2.36797 21.2461 2.51016C21.1258 2.56484 20.5461 2.98594 19.9609 3.44531C19.3758 3.90469 18.8617 4.30391 18.8289 4.33672C18.725 4.41328 17.5055 3.89922 17.4398 3.75156C17.418 3.68594 17.3305 3.08438 17.2539 2.40625C17.0734 0.842188 17.0406 0.694532 16.7945 0.421095C16.4172 0 16.4336 0 14 0C12.0258 0 11.8234 0.0109386 11.6211 0.103907Z" fill="#FF6635"/>
<path d="M13.218 6.73198C11.4954 6.92339 9.94224 7.69448 8.71724 8.98511C7.38286 10.3796 6.71021 12.0695 6.71021 14C6.71021 15.4929 7.10395 16.8109 7.9352 18.0742C8.29614 18.621 9.35161 19.682 9.89849 20.0429C11.1782 20.8906 12.4852 21.2898 14 21.2898C15.9305 21.2898 17.6258 20.6117 19.0094 19.2937C20.3547 18.0031 21.093 16.4882 21.2735 14.6179C21.4157 13.2125 21.0657 11.6375 20.3329 10.3468C19.9008 9.58667 19.6 9.37339 19.2993 9.61948C19.1079 9.77261 19.1352 10.0296 19.3868 10.3906C19.5016 10.5546 19.7149 10.9375 19.8571 11.2382C21.0602 13.732 20.4915 16.7617 18.4625 18.6921C17.8118 19.3101 16.986 19.8187 16.1875 20.1031L15.8321 20.2234L15.8157 18.2492C15.8047 16.45 15.8102 16.264 15.8922 16.2148C16.8602 15.6351 17.4836 14.9406 17.8227 14.0546C18.3969 12.5617 18.0579 10.8554 16.9586 9.73433C16.4118 9.17651 16.0836 8.9687 15.7446 8.9687C15.5696 8.9687 15.4438 9.00151 15.3454 9.08354C15.0555 9.31323 15.0391 9.4062 15.0391 10.757V12.0039L14.5305 12.5125C14.2516 12.7859 14 13.0156 13.9727 13.0156C13.9454 13.0156 13.7047 12.8023 13.4422 12.5398L12.961 12.0585V10.7843C12.961 9.76714 12.9446 9.47729 12.879 9.35151C12.6602 8.93042 12.1954 8.84292 11.725 9.13823C11.3641 9.36792 10.7352 10.0242 10.5055 10.407C10.0516 11.1726 9.87661 11.8781 9.91489 12.7695C9.94224 13.4476 10.1227 14.082 10.4508 14.6453C10.6969 15.0609 11.4899 15.8539 11.8836 16.0781L12.1954 16.2531V17.0078C12.1954 17.8335 12.2336 17.9539 12.5344 18.025C12.6547 18.0523 12.7149 18.025 12.8516 17.8937C13.0157 17.7296 13.0157 17.7187 13.0157 17.1445V16.5648L13.3055 16.6085C13.6774 16.6632 14.3938 16.6632 14.7274 16.6085L14.9844 16.5648V18.4734C14.9844 20.5898 15.0118 20.4531 14.6235 20.4531H14.4375L14.4321 19.3429C14.4321 18.6375 14.4102 18.1671 14.3665 18.0468C14.2407 17.6804 13.7594 17.6804 13.6336 18.0468C13.5899 18.1671 13.568 18.6375 13.568 19.3429L13.5625 20.4531H13.3602C13.2454 20.4531 13.125 20.4312 13.0922 20.4093C13.054 20.3875 13.0211 20.1632 13.0102 19.8734C12.9829 19.2937 12.9008 19.1406 12.6055 19.1406C12.2938 19.1406 12.2282 19.239 12.1954 19.7585L12.168 20.2234L11.9219 20.1414C11.4352 19.9828 10.5602 19.5234 10.1282 19.1953C9.5977 18.796 8.95786 18.1234 8.61333 17.6148C7.79849 16.3843 7.3938 14.8039 7.54692 13.4203C7.79849 11.0796 9.11099 9.18745 11.1782 8.17573C13.2727 7.14761 15.7008 7.33354 17.6915 8.66792C17.9375 8.83198 18.1891 8.9687 18.2602 8.9687C18.4188 8.9687 18.6485 8.73355 18.6485 8.57495C18.6485 8.50386 18.6102 8.39448 18.5665 8.32886C18.4625 8.1812 17.7024 7.67261 17.254 7.44839C16.0946 6.8687 14.5196 6.5898 13.218 6.73198ZM16.543 10.4781C17.861 12.0859 17.325 14.5851 15.4657 15.4984C14.2133 16.1164 12.7969 15.9085 11.7797 14.9625C11.3641 14.5796 11.1016 14.1859 10.8938 13.6281C10.7735 13.3164 10.7516 13.1687 10.7516 12.6054C10.7461 11.8015 10.8774 11.3421 11.2766 10.7351C11.5172 10.3851 11.9875 9.89839 12.1024 9.89839C12.1243 9.89839 12.1407 10.4125 12.1407 11.0414C12.1407 11.714 12.1625 12.25 12.2008 12.3375C12.2665 12.5179 13.4149 13.6992 13.6282 13.814C13.8086 13.907 14.1258 13.9125 14.2899 13.825C14.4813 13.7265 15.6571 12.5835 15.7665 12.3921C15.8485 12.2445 15.8594 12.064 15.8594 11.0304V9.83823L16.1 10.0351C16.2368 10.1445 16.4336 10.3414 16.543 10.4781Z" fill="#FF6635"/>
</svg>
